<svg width="19" height="21" viewBox="0 0 19 21" fill="none" xmlns="http://www.w3.org/2000/svg">
<g filter="url(#filter0_d_16_448)">
<path d="M5.66663 18.7001C6.51347 18.7001 7.19997 18.0136 7.19997 17.1668C7.19997 16.3199 6.51347 15.6334 5.66663 15.6334C4.8198 15.6334 4.1333 16.3199 4.1333 17.1668C4.1333 18.0136 4.8198 18.7001 5.66663 18.7001Z" fill="white"/>
<path d="M13.3334 18.7001C14.1802 18.7001 14.8667 18.0136 14.8667 17.1668C14.8667 16.3199 14.1802 15.6334 13.3334 15.6334C12.4865 15.6334 11.8 16.3199 11.8 17.1668C11.8 18.0136 12.4865 18.7001 13.3334 18.7001Z" fill="white"/>
<path d="M4.63478 4.13338L4.43315 2.55252C4.35993 1.93205 4.06161 1.36001 3.59472 0.944844C3.12784 0.52968 2.52486 0.30025 1.90008 0.300049L0.300049 0.300049V2.60005H1.90008C1.9628 2.60072 2.02305 2.6246 2.0692 2.66707C2.11536 2.70954 2.14415 2.7676 2.15002 2.83005L3.30002 11.8453C3.37255 12.4662 3.6706 13.0389 4.13757 13.4546C4.60454 13.8703 5.20791 14.0999 5.83308 14.1H15.94L18.6801 4.13338H4.63478ZM14.1859 11.8H5.83308C5.7704 11.7995 5.71015 11.7757 5.66408 11.7332C5.61802 11.6906 5.58944 11.6325 5.58392 11.57L4.92842 6.43338H15.6617L14.1859 11.8Z" fill="white"/>
</g>
<defs>
<filter id="filter0_d_16_448" x="0.300049" y="0.300049" width="18.3801" height="19.9" filterUnits="userSpaceOnUse" color-interpolation-filters="sRGB">
<feFlood flood-opacity="0" result="BackgroundImageFix"/>
<feColorMatrix in="SourceAlpha" type="matrix" values="0 0 0 0 0 0 0 0 0 0 0 0 0 0 0 0 0 0 127 0" result="hardAlpha"/>
<feOffset dy="1.5"/>
<feComposite in2="hardAlpha" operator="out"/>
<feColorMatrix type="matrix" values="0 0 0 0 0 0 0 0 0 0 0 0 0 0 0 0 0 0 0.25 0"/>
<feBlend mode="normal" in2="BackgroundImageFix" result="effect1_dropShadow_16_448"/>
<feBlend mode="normal" in="SourceGraphic" in2="effect1_dropShadow_16_448" result="shape"/>
</filter>
</defs>
</svg>
