<svg width="20" height="16" viewBox="0 0 20 16" fill="none" xmlns="http://www.w3.org/2000/svg">
<path d="M16.9308 1.30503C15.6561 0.700991 14.2892 0.255958 12.8599 0.00106923C12.8339 -0.00385005 12.8079 0.00844348 12.7945 0.0330311C12.6187 0.355943 12.4239 0.777209 12.2876 1.10832C10.7503 0.870649 9.22099 0.870649 7.71527 1.10832C7.57887 0.769849 7.37707 0.355943 7.20048 0.0330311C7.18707 0.00926385 7.16107 -0.00302968 7.13504 0.00106923C5.70659 0.255143 4.33963 0.700176 3.06411 1.30503C3.05307 1.30995 3.04361 1.31815 3.03732 1.3288C0.444493 5.32921 -0.265792 9.23129 0.0826501 13.085C0.0842267 13.1038 0.0944749 13.1219 0.108665 13.1333C1.81934 14.4307 3.47642 15.2184 5.10273 15.7404C5.12876 15.7486 5.15634 15.7388 5.1729 15.7167C5.55761 15.1741 5.90054 14.6021 6.19456 14.0005C6.21192 13.9652 6.19535 13.9234 6.15989 13.9095C5.61594 13.6964 5.098 13.4366 4.59977 13.1415C4.56037 13.1178 4.55721 13.0596 4.59347 13.0317C4.69831 12.9506 4.80318 12.8661 4.9033 12.7809C4.92141 12.7653 4.94665 12.7621 4.96794 12.7719C8.24107 14.3152 11.7846 14.3152 15.0191 12.7719C15.0404 12.7612 15.0657 12.7645 15.0846 12.7801C15.1847 12.8653 15.2895 12.9506 15.3952 13.0317C15.4314 13.0596 15.4291 13.1178 15.3897 13.1415C14.8914 13.4423 14.3735 13.6964 13.8288 13.9087C13.7933 13.9226 13.7775 13.9652 13.7949 14.0005C14.0952 14.6012 14.4381 15.1733 14.8157 15.7159C14.8315 15.7388 14.8599 15.7486 14.8859 15.7404C16.5201 15.2184 18.1772 14.4307 19.8879 13.1333C19.9028 13.1219 19.9123 13.1047 19.9139 13.0858C20.3309 8.6305 19.2154 4.76042 16.9568 1.32962C16.9513 1.31815 16.9419 1.30995 16.9308 1.30503ZM6.68335 10.7385C5.69792 10.7385 4.88594 9.80418 4.88594 8.65674C4.88594 7.50931 5.68217 6.575 6.68335 6.575C7.69239 6.575 8.49651 7.51751 8.48073 8.65674C8.48073 9.80418 7.68451 10.7385 6.68335 10.7385ZM13.329 10.7385C12.3435 10.7385 11.5316 9.80418 11.5316 8.65674C11.5316 7.50931 12.3278 6.575 13.329 6.575C14.338 6.575 15.1421 7.51751 15.1264 8.65674C15.1264 9.80418 14.338 10.7385 13.329 10.7385Z" fill="#FFD798"/>
</svg>
