<svg width="16" height="16" viewBox="0 0 16 16" fill="none" xmlns="http://www.w3.org/2000/svg">
<path d="M10.6667 2.66667V2.33333C10.6667 1.71449 10.4208 1.121 9.98325 0.683417C9.54566 0.245833 8.95217 0 8.33333 0H0V16H2V9.33333H6.66667V9.66667C6.66667 10.2855 6.9125 10.879 7.35008 11.3166C7.78767 11.7542 8.38116 12 9 12H16V2.66667H10.6667ZM2 2H8.33333C8.42174 2 8.50652 2.03512 8.56904 2.09763C8.63155 2.16014 8.66667 2.24493 8.66667 2.33333V7.33333H2V2ZM14 10H9C8.91159 10 8.82681 9.96488 8.7643 9.90237C8.70179 9.83986 8.66667 9.75507 8.66667 9.66667V9.33333H10.6667V4.66667H14V10Z" fill="#FFD798"/>
</svg>
