<svg width="19" height="19" viewBox="0 0 19 19" fill="none" xmlns="http://www.w3.org/2000/svg">
<path d="M18.7402 16.0637L15.0404 12.5586C14.8734 12.4004 14.6471 12.3125 14.4096 12.3125H13.8047C14.8289 11.0715 15.4375 9.51055 15.4375 7.8125C15.4375 3.77305 11.9826 0.5 7.71875 0.5C3.45488 0.5 0 3.77305 0 7.8125C0 11.852 3.45488 15.125 7.71875 15.125C9.51113 15.125 11.1588 14.5484 12.4688 13.5781V14.1512C12.4688 14.3762 12.5615 14.5906 12.7285 14.7488L16.4283 18.2539C16.7772 18.5844 17.3412 18.5844 17.6863 18.2539L18.7365 17.259C19.0854 16.9285 19.0854 16.3941 18.7402 16.0637ZM7.71875 12.3125C5.09512 12.3125 2.96875 10.3016 2.96875 7.8125C2.96875 5.32695 5.09141 3.3125 7.71875 3.3125C10.3424 3.3125 12.4688 5.32344 12.4688 7.8125C12.4688 10.298 10.3461 12.3125 7.71875 12.3125Z" fill="#FFD798"/>
</svg>
